<svg width="1.5em" height="1.5em" viewBox="0 0 24 24" fill="none" xmlns="http://www.w3.org/2000/svg">
<g opacity="0.3">
<path d="M17.5 10C17.5 14.5 12 19.5 12 19.5C12 19.5 6.5 14.5 6.5 10C6.5 8.54131 7.07946 7.14236 8.11091 6.11091C9.14236 5.07946 10.5413 4.5 12 4.5C13.4587 4.5 14.8576 5.07946 15.8891 6.11091C16.9205 7.14236 17.5 8.54131 17.5 10V10Z" stroke="white" stroke-linecap="round" stroke-linejoin="round"/>
<path d="M12 12.5C13.3807 12.5 14.5 11.3807 14.5 10C14.5 8.61929 13.3807 7.5 12 7.5C10.6193 7.5 9.5 8.61929 9.5 10C9.5 11.3807 10.6193 12.5 12 12.5Z" stroke="white" stroke-linecap="round" stroke-linejoin="round"/>
</g>
</svg>
