<svg width="24" height="24" viewBox="0 0 24 24" fill="none" xmlns="http://www.w3.org/2000/svg">
<path d="M20 7C19.4 7.3 18.8 7.4 18.1 7.5C18.8 7.1 19.3 6.5 19.5 5.7C18.9 6.1 18.2 6.3 17.4 6.5C16.8 5.9 15.9 5.5 15 5.5C13.3 5.5 11.8 7 11.8 8.8C11.8 9.1 11.8 9.3 11.9 9.5C9.2 9.4 6.7 8.1 5.1 6.1C4.8 6.6 4.7 7.1 4.7 7.8C4.7 8.9 5.3 9.9 6.2 10.5C5.7 10.5 5.2 10.3 4.7 10.1C4.7 11.7 5.8 13 7.3 13.3C7 13.4 6.7 13.4 6.4 13.4C6.2 13.4 6 13.4 5.8 13.3C6.2 14.6 7.4 15.6 8.9 15.6C7.8 16.5 6.4 17 4.8 17C4.5 17 4.3 17 4 17C5.5 17.9 7.2 18.5 9 18.5C15 18.5 18.3 13.5 18.3 9.2C18.3 9.1 18.3 8.9 18.3 8.8C19 8.3 19.6 7.7 20 7Z" fill="white"/>
</svg>
