<svg width="24" height="24" viewBox="0 0 24 24" fill="none" xmlns="http://www.w3.org/2000/svg">
<path d="M19.8333 8.80003C19.8333 8.80003 19.6667 7.70003 19.2 7.20003C18.6 6.5667 17.9 6.5667 17.6 6.53337C15.3667 6.3667 12 6.3667 12 6.3667C12 6.3667 8.63333 6.3667 6.4 6.53337C6.1 6.5667 5.4 6.5667 4.8 7.20003C4.33333 7.70003 4.16667 8.80003 4.16667 8.80003C4.16667 8.80003 4 10.1 4 11.4V12.6C4 13.9 4.16667 15.2 4.16667 15.2C4.16667 15.2 4.33333 16.3 4.8 16.8C5.4 17.4334 6.2 17.4334 6.56667 17.5C7.83333 17.6334 12 17.6667 12 17.6667C12 17.6667 15.3667 17.6667 17.6 17.5C17.9 17.4667 18.6 17.4667 19.2 16.8334C19.6667 16.3334 19.8333 15.2334 19.8333 15.2334C19.8333 15.2334 20 13.9334 20 12.6334V11.4334C20 10.1 19.8333 8.80003 19.8333 8.80003ZM10.3333 14.0667V9.5667L14.6667 11.8334L10.3333 14.0667Z" fill="white"/>
</svg>
