<svg width="1440" height="472" viewBox="0 0 1440 472" fill="none" xmlns="http://www.w3.org/2000/svg">
<path d="M0 0H718H1440V472H718H0V0Z" fill="#F9FCFF"/>
<mask id="mask0_72_516" style="mask-type:alpha" maskUnits="userSpaceOnUse" x="0" y="0" width="1440" height="472">
<path d="M0 0H718H1440V472H718H0V0Z" fill="#F9FCFF"/>
</mask>
<g mask="url(#mask0_72_516)">
<g opacity="0.2">
<path d="M1659.06 77.7754C1617.79 166.336 1644.15 231.313 1644.15 231.313C1644.15 231.313 1657.5 262.662 1648.33 353.567C1636.88 467.199 1479.15 479.759 1330.39 442.394C1181.64 405.029 1254.34 373.174 1198.92 334.854C1137.24 292.208 1272.88 157.181 1306.8 123.63C1340.73 90.0786 1390.74 109.822 1418.51 61.3758C1446.28 12.9291 1446.66 -70.2201 1518.68 -78.0576C1575.35 -84.2251 1561.55 -31.1544 1603.93 -2.80866C1623.72 10.4221 1700.33 -10.7851 1659.06 77.7754Z" stroke="#0091EB"/>
<path d="M1636.21 99.7266C1599.14 179.293 1622.83 237.678 1622.83 237.678C1622.83 237.678 1634.82 265.845 1626.6 347.522C1616.32 449.618 1474.58 460.887 1340.9 427.3C1207.23 393.713 1272.55 365.098 1222.75 330.663C1167.31 292.339 1289.19 171.032 1319.67 140.89C1350.16 110.748 1395.1 128.493 1420.04 84.9671C1444.99 41.441 1445.33 -33.2678 1510.05 -40.3024C1560.97 -45.838 1548.57 1.8441 1586.67 27.3169C1604.45 39.2066 1673.29 20.1599 1636.21 99.7266Z" stroke="#0091EB"/>
<path d="M1625.11 116.099C1590.89 189.551 1612.76 243.446 1612.76 243.446C1612.76 243.446 1623.83 269.448 1616.23 344.847C1606.74 439.095 1475.9 449.502 1352.51 418.5C1229.11 387.499 1289.41 361.082 1243.44 329.295C1192.27 293.919 1304.78 181.934 1332.92 154.108C1361.06 126.282 1402.54 142.661 1425.57 102.481C1448.6 62.2997 1448.92 -6.66624 1508.65 -13.162C1555.66 -18.2735 1544.22 25.7436 1579.38 49.2571C1595.79 60.2324 1659.34 42.6478 1625.11 116.099Z" stroke="#0091EB"/>
<path d="M1611.66 118.549C1582.7 180.697 1601.24 226.313 1601.24 226.313C1601.24 226.313 1610.62 248.32 1604.21 312.124C1596.2 391.879 1485.43 400.645 1380.95 374.371C1276.47 348.098 1327.51 325.761 1288.58 298.848C1245.25 268.895 1340.47 174.162 1364.28 150.623C1388.1 127.084 1423.22 140.958 1442.71 106.962C1462.2 72.9662 1462.44 14.6038 1513.02 9.12537C1552.82 4.81428 1543.14 42.0603 1572.92 61.9696C1586.81 71.2624 1640.61 56.4013 1611.66 118.549Z" stroke="#0091EB"/>
<path d="M1602.42 128.036C1576.34 183.996 1593.02 225.066 1593.02 225.066C1593.02 225.066 1601.46 244.88 1595.69 302.329C1588.47 374.14 1488.75 382.047 1394.7 358.405C1300.65 334.762 1346.6 314.644 1311.56 290.417C1272.55 263.453 1358.28 178.145 1379.72 156.947C1401.17 135.75 1432.79 148.237 1450.33 117.625C1467.88 87.0133 1468.11 34.4647 1513.64 29.5253C1549.46 25.6384 1540.75 59.1754 1567.55 77.0975C1580.06 85.4628 1628.49 72.0749 1602.42 128.036Z" stroke="#0091EB"/>
<path d="M1551.87 166.107C1541.23 188.933 1548.05 205.692 1548.05 205.692C1548.05 205.692 1551.5 213.778 1549.15 237.215C1546.22 266.512 1505.51 269.718 1467.11 260.053C1428.71 250.388 1447.47 242.189 1433.15 232.297C1417.23 221.289 1452.21 186.501 1460.96 177.857C1469.71 169.213 1482.62 174.314 1489.77 161.829C1496.93 149.343 1497.01 127.903 1515.6 125.898C1530.23 124.319 1526.67 138 1537.62 145.317C1542.73 148.733 1562.5 143.281 1551.87 166.107Z" stroke="#0091EB"/>
<path d="M1355.72 119.298C1357.36 120.203 1357.95 122.265 1357.05 123.904C1356.14 125.544 1354.08 126.14 1352.44 125.235C1350.8 124.331 1350.21 122.269 1351.11 120.629C1352.01 118.99 1354.08 118.394 1355.72 119.298Z" fill="white" stroke="#0091EB"/>
<path d="M1324.04 218.899C1326.45 220.231 1327.33 223.268 1326 225.681C1324.67 228.095 1321.63 228.973 1319.22 227.641C1316.8 226.309 1315.92 223.273 1317.26 220.859C1318.59 218.445 1321.62 217.567 1324.04 218.899Z" fill="white" stroke="#0091EB"/>
<path d="M1585.29 137.683C1563.86 183.691 1577.61 217.472 1577.61 217.472C1577.61 217.472 1584.56 233.77 1579.83 281.01C1573.92 340.061 1491.87 346.52 1414.46 327.036C1337.05 307.552 1374.86 291.028 1346.01 271.089C1313.9 248.899 1384.41 178.783 1402.05 161.361C1419.69 143.938 1445.71 154.221 1460.14 129.055C1474.56 103.889 1474.73 60.6757 1512.19 56.6338C1541.67 53.4532 1534.51 81.0286 1556.58 95.7786C1566.88 102.663 1606.73 91.6752 1585.29 137.683Z" stroke="#0091EB"/>
<path d="M1571.93 146.392C1553.42 186.141 1565.27 215.317 1565.27 215.317C1565.27 215.317 1571.27 229.394 1567.18 270.203C1562.06 321.214 1491.2 326.817 1424.37 310.01C1357.54 293.203 1390.19 278.918 1365.29 261.703C1337.57 242.543 1398.47 181.954 1413.71 166.9C1428.94 151.845 1451.41 160.719 1463.87 138.976C1476.33 117.233 1476.49 79.9039 1508.84 76.4013C1534.29 73.645 1528.11 97.4673 1547.15 110.202C1556.04 116.146 1590.45 106.643 1571.93 146.392Z" stroke="#0091EB"/>
<path d="M1559.29 157.438C1544.95 188.227 1554.11 210.817 1554.11 210.817C1554.11 210.817 1558.75 221.716 1555.57 253.32C1551.59 292.824 1496.75 297.189 1445.03 284.197C1393.31 271.206 1418.59 260.131 1399.32 246.809C1377.87 231.982 1425.03 185.04 1436.82 173.376C1448.62 161.712 1466.01 168.577 1475.66 151.734C1485.31 134.892 1485.45 105.984 1510.48 103.26C1530.19 101.117 1525.39 119.567 1540.13 129.422C1547 134.022 1573.64 126.65 1559.29 157.438Z" stroke="#0091EB"/>
</g>
<g opacity="0.2">
<path d="M223.657 169.678C203.857 107.22 94.8065 73.1232 76.2244 57.2655L-136.886 -40.6594C-183.276 10.385 -244.739 133.692 -119.47 218.562C37.1177 324.651 -17.6801 378.713 156.878 440.182C331.435 501.651 243.458 232.137 223.657 169.678Z" stroke="#0091EB"/>
<path d="M203.814 172.377C185.982 116.159 87.8001 85.4602 71.0691 71.1856L-120.805 -16.9712C-162.566 28.9679 -217.891 139.946 -105.102 216.346C35.8839 311.846 -13.4465 360.5 143.715 415.841C300.876 471.182 221.646 228.595 203.814 172.377Z" stroke="#0091EB"/>
<path d="M188.851 175.414C173.185 126.017 86.9245 99.0457 72.2253 86.5034L-96.3504 9.04783C-133.043 49.4149 -181.655 146.931 -82.5616 214.058C41.3045 297.968 -2.0382 340.721 136.04 389.343C274.119 437.965 204.516 224.811 188.851 175.414Z" stroke="#0091EB"/>
<path d="M154.781 167.005C142.379 127.926 74.1129 106.581 62.4792 96.6581L-70.9332 35.368C-99.9663 67.2978 -138.426 144.435 -60.0009 197.548C38.0306 263.939 3.7351 297.756 113.01 336.233C222.286 374.711 167.183 206.083 154.781 167.005Z" stroke="#0091EB"/>
<path d="M122.206 166.682C112.328 135.616 58.0078 118.631 48.7491 110.74L-57.4144 61.987C-80.5059 87.3602 -111.086 148.666 -48.6744 190.906C29.3401 243.705 2.06203 270.576 89.0153 301.19C175.969 331.803 132.083 197.748 122.206 166.682Z" stroke="#0091EB"/>
<path d="M85.7327 170.306C78.5437 147.635 38.956 135.258 32.2101 129.501L-45.1543 93.954C-61.9939 112.481 -84.3041 157.236 -38.8276 188.044C18.0181 226.554 -1.87362 246.176 61.4949 268.49C124.863 290.804 92.9217 192.977 85.7327 170.306Z" stroke="#0091EB"/>
<path d="M69.6068 176.003C63.9992 158.393 33.1838 148.758 27.9307 144.284L-32.2968 116.634C-45.3915 131.013 -62.7287 165.757 -27.32 189.708C16.9409 219.647 1.47168 234.874 50.7997 252.239C100.128 269.604 75.2144 193.614 69.6068 176.003Z" stroke="#0091EB"/>
<path d="M56.0204 174.607C50.908 160.472 24.4787 152.209 19.9192 148.545L-31.9043 125.369C-42.7822 136.572 -56.8842 163.917 -26.2693 183.671C11.9994 208.365 -0.88466 220.198 41.4593 234.973C83.8033 249.748 61.1328 188.742 56.0204 174.607Z" stroke="#0091EB"/>
<path d="M40.5773 171.196C35.5639 160.247 12.1712 152.933 8.04835 149.968L-38.0926 130.324C-47.1517 138.42 -58.3966 158.667 -30.9025 174.884C3.46512 195.155 -7.32074 203.652 30.218 216.538C67.7567 229.424 45.5906 182.144 40.5773 171.196Z" stroke="#0091EB"/>
<path d="M18.1406 164.735C14.7308 157.609 -0.901802 152.721 -3.6676 150.774L-34.5352 137.752C-40.5199 142.941 -47.8839 155.99 -29.4622 166.672C-6.43496 180.026 -13.5676 185.464 11.5257 194.052C36.6189 202.64 21.5503 171.862 18.1406 164.735Z" stroke="#0091EB"/>
<circle r="6.07591" transform="matrix(-0.954433 -0.298424 -0.298424 0.954433 109.369 146.575)" fill="white" stroke="#0091EB"/>
<circle r="3.33595" transform="matrix(-0.954433 -0.298424 -0.298424 0.954433 12.6635 193.275)" fill="white" stroke="#0091EB"/>
<circle r="3.33595" transform="matrix(-0.954433 -0.298424 -0.298424 0.954433 108.414 401.201)" fill="white" stroke="#0091EB"/>
</g>
<circle r="1.64612" transform="matrix(1 0 0 -1 98.8586 220.642)" fill="#0091EB"/>
<circle opacity="0.3" r="1.64612" transform="matrix(1 0 0 -1 86.5125 6.64612)" fill="#0091EB"/>
<circle r="1.64612" transform="matrix(1 0 0 -1 283.224 90.5984)" fill="#0091EB"/>
<circle opacity="0.3" r="1.64612" transform="matrix(1 0 0 -1 338.369 151.505)" fill="#0091EB"/>
<circle r="1.64612" transform="matrix(1 0 0 -1 209.973 27.2229)" fill="#0091EB"/>
<circle r="2.46918" transform="matrix(1 0 0 -1 19.8447 111.175)" fill="#0091EB"/>
<circle opacity="0.3" r="2.46918" transform="matrix(1 0 0 -1 182.813 111.175)" fill="#0091EB"/>
<circle opacity="0.3" r="2.46918" transform="matrix(1 0 0 -1 336.722 37.0995)" fill="#0091EB"/>
<circle r="2.46918" transform="matrix(1 0 0 -1 162.237 42.0386)" fill="#0091EB"/>
<circle opacity="0.3" r="2.46918" transform="matrix(1 0 0 -1 562.242 54.3835)" fill="#0091EB"/>
<circle r="2.46918" transform="matrix(1 0 0 -1 433.845 61.7916)" fill="#0091EB"/>
<circle opacity="0.3" r="0.823059" transform="matrix(1 0 0 -1 50.3008 110.352)" fill="#0091EB"/>
<circle opacity="0.3" r="0.823059" transform="matrix(1 0 0 -1 12.4379 9.11554)" fill="#0091EB"/>
<circle r="0.823059" transform="matrix(1 0 0 -1 253.594 83.1907)" fill="#0091EB"/>
<circle r="0.823059" transform="matrix(1 0 0 -1 476.643 92.2452)" fill="#0091EB"/>
<circle opacity="0.3" r="0.823059" transform="matrix(1 0 0 -1 490.635 45.33)" fill="#0091EB"/>
<circle opacity="0.3" r="0.823059" transform="matrix(1 0 0 -1 23.1387 270.026)" fill="#0091EB"/>
<circle r="1.64612" transform="matrix(1 0 0 -1 1300.86 414.642)" fill="#0091EB"/>
<circle opacity="0.3" r="1.64612" transform="matrix(1 0 0 -1 1288.51 200.646)" fill="#0091EB"/>
<circle r="1.64612" transform="matrix(1 0 0 -1 1190.57 373.489)" fill="#0091EB"/>
<circle r="1.64612" transform="matrix(1 0 0 -1 1411.97 221.223)" fill="#0091EB"/>
<circle opacity="0.3" r="2.46918" transform="matrix(1 0 0 -1 1158.47 250.854)" fill="#0091EB"/>
<circle r="2.46918" transform="matrix(1 0 0 -1 1221.84 305.175)" fill="#0091EB"/>
<circle opacity="0.3" r="2.46918" transform="matrix(1 0 0 -1 1384.81 305.175)" fill="#0091EB"/>
<circle r="2.46918" transform="matrix(1 0 0 -1 1364.24 236.039)" fill="#0091EB"/>
<circle opacity="0.3" r="0.823059" transform="matrix(1 0 0 -1 1252.3 304.352)" fill="#0091EB"/>
<circle opacity="0.3" r="0.823059" transform="matrix(1 0 0 -1 1214.44 203.116)" fill="#0091EB"/>
<circle opacity="0.3" r="0.823059" transform="matrix(1 0 0 -1 1225.14 464.026)" fill="#0091EB"/>
</g>
</svg>
