<svg width="296" height="472" viewBox="0 0 296 472" fill="none" xmlns="http://www.w3.org/2000/svg">
<g opacity="0.2">
<path d="M515.062 77.7754C473.792 166.336 500.155 231.313 500.155 231.313C500.155 231.313 513.495 262.662 504.333 353.567C492.881 467.199 335.147 479.759 186.395 442.394C37.642 405.029 110.34 373.174 54.9185 334.854C-6.76186 292.208 128.877 157.181 162.805 123.63C196.732 90.0786 246.739 109.822 274.507 61.3758C302.276 12.9291 302.663 -70.2201 374.679 -78.0576C431.35 -84.2251 417.546 -31.1544 459.933 -2.80866C479.718 10.4221 556.333 -10.7851 515.062 77.7754Z" stroke="#0091EB"/>
<path d="M492.214 99.7266C455.137 179.293 478.834 237.678 478.834 237.678C478.834 237.678 490.825 265.845 482.601 347.522C472.322 449.618 330.58 460.887 196.904 427.3C63.2281 393.713 128.553 365.098 78.746 330.663C23.3144 292.339 145.189 171.032 175.673 140.89C206.157 110.748 251.096 128.493 276.045 84.9671C300.993 41.441 301.333 -33.2678 366.047 -40.3024C416.972 -45.838 404.573 1.8441 442.666 27.3169C460.446 39.2066 529.291 20.1599 492.214 99.7266Z" stroke="#0091EB"/>
<path d="M481.114 116.099C446.886 189.551 468.759 243.446 468.759 243.446C468.759 243.446 479.827 269.448 472.233 344.847C462.741 439.095 331.9 449.502 208.506 418.5C85.1116 387.499 145.413 361.082 99.4379 329.295C48.2705 293.919 160.775 181.934 188.916 154.108C217.057 126.282 258.539 142.661 281.57 102.481C304.601 62.2997 304.917 -6.66624 364.655 -13.162C411.663 -18.2735 400.216 25.7436 435.379 49.2571C451.791 60.2324 515.342 42.6478 481.114 116.099Z" stroke="#0091EB"/>
<path d="M467.658 118.549C438.701 180.697 457.237 226.313 457.237 226.313C457.237 226.313 466.615 248.32 460.21 312.124C452.203 391.879 341.43 400.645 236.95 374.371C132.469 348.098 183.515 325.761 144.58 298.848C101.249 268.895 196.466 174.162 220.282 150.623C244.098 127.084 279.224 140.958 298.711 106.962C318.197 72.9662 318.444 14.6038 369.018 9.12537C408.815 4.81428 399.138 42.0603 428.915 61.9696C442.814 71.2624 496.614 56.4013 467.658 118.549Z" stroke="#0091EB"/>
<path d="M458.419 128.036C432.344 183.996 449.024 225.066 449.024 225.066C449.024 225.066 457.463 244.88 451.689 302.329C444.47 374.14 344.75 382.047 250.698 358.405C156.646 334.762 202.601 314.644 167.555 290.417C128.552 263.453 214.28 178.145 235.723 156.947C257.166 135.75 288.785 148.237 306.332 117.625C323.878 87.0133 324.108 34.4647 369.636 29.5253C405.463 25.6384 396.746 59.1754 423.55 77.0975C436.061 85.4628 484.494 72.0749 458.419 128.036Z" stroke="#0091EB"/>
<path d="M407.865 166.107C397.232 188.933 404.05 205.692 404.05 205.692C404.05 205.692 407.499 213.778 405.153 237.215C402.221 266.512 361.512 269.718 323.111 260.053C284.71 250.388 303.467 242.189 289.154 232.297C273.225 221.289 308.206 186.501 316.956 177.857C325.706 169.213 338.617 174.314 345.774 161.829C352.931 149.343 353.014 127.903 371.6 125.898C386.225 124.319 382.674 138 393.62 145.317C398.729 148.733 418.499 143.281 407.865 166.107Z" stroke="#0091EB"/>
<path d="M211.716 119.298C213.356 120.203 213.952 122.265 213.048 123.904C212.143 125.544 210.081 126.14 208.441 125.235C206.802 124.331 206.206 122.269 207.11 120.629C208.014 118.99 210.076 118.394 211.716 119.298Z" fill="white" stroke="#0091EB"/>
<path d="M180.038 218.899C182.452 220.231 183.33 223.268 181.999 225.681C180.667 228.095 177.63 228.973 175.216 227.641C172.802 226.309 171.924 223.273 173.255 220.859C174.587 218.445 177.623 217.567 180.038 218.899Z" fill="white" stroke="#0091EB"/>
<path d="M441.295 137.683C419.862 183.691 433.606 217.472 433.606 217.472C433.606 217.472 440.56 233.77 435.833 281.01C429.925 340.061 347.867 346.52 270.461 327.036C193.055 307.552 230.863 291.028 202.012 271.089C169.904 248.899 240.413 178.783 258.049 161.361C275.686 143.938 301.711 154.221 316.136 129.055C330.562 103.889 330.728 60.6757 368.191 56.6338C397.672 53.4532 390.514 81.0286 412.578 95.7786C422.877 102.663 462.728 91.6752 441.295 137.683Z" stroke="#0091EB"/>
<path d="M427.935 146.392C409.415 186.141 421.272 215.317 421.272 215.317C421.272 215.317 427.272 229.394 423.176 270.203C418.057 321.214 347.203 326.817 280.373 310.01C213.542 293.203 246.192 278.918 221.288 261.703C193.57 242.543 254.472 181.954 269.705 166.9C284.938 151.845 307.407 160.719 319.87 138.976C332.333 117.233 332.489 79.9039 364.838 76.4013C390.294 73.645 384.105 97.4673 403.152 110.202C412.043 116.146 446.455 106.643 427.935 146.392Z" stroke="#0091EB"/>
<path d="M415.294 157.438C400.946 188.227 410.112 210.817 410.112 210.817C410.112 210.817 414.751 221.716 411.567 253.32C407.586 292.824 352.747 297.189 301.029 284.197C249.312 271.206 274.586 260.131 255.317 246.809C233.872 231.982 281.029 185.04 292.824 173.376C304.619 161.712 322.005 168.577 331.659 151.734C341.313 134.892 341.447 105.984 366.485 103.26C386.187 101.117 381.389 119.567 396.126 129.422C403.005 134.022 429.641 126.65 415.294 157.438Z" stroke="#0091EB"/>
</g>
</svg>
